# xmcd CD database file
#
# Track frame offsets:
#	269
#	13743
#	32730
#	45234
#	60318
#	75637
#	89596
#	94748
#	110254
#	120225
#	128933
#	142509
#	159783
#	173753
#	184369
#	200198
#	213997
#	233057
#	245277
#	261263
#	274865
#
# Disc length: 3869 seconds
#
# Revision: 1
# Processed by: cddbd v1.5.2PL0 Copyright (c) Steve Scherf et al.
# Submitted via: CDValet v3.40 - Copyright (c) 1996 - 1998 Greg Leichner
#
DISCID=120f1a15
DTITLE=Various Artist - Classic Piedmont Blues From Smithsonia
DTITLE=n Folkways
DYEAR=1900
DGENRE=
TTITLE0=Truckin' Little Baby - John Jackson
TTITLE1=Mamie - John Cephas and Phil Wiggins
TTITLE2=Hey Bartender, There's A Big Bug In My Beer - Warner Wi
TTITLE2=lliams and Eddie Pennington
TTITLE3=Confusion - Brownie McGhee and Sonny Terry
TTITLE4=T.B. Blues - Josh White
TTITLE5=If I Could Holler Like A Mountain Jack - Baby Tate
TTITLE6=Clog Dance - Hobart Smith
TTITLE7=Daisy - Brownie McGhee
TTITLE8=Going Down The Road Feeling Bad - Elizabeth Cotton
TTITLE9=I Got A Woman 'Cross Town - Pink Anderson
TTITLE10=Red River Blues - John Jackson
TTITLE11=I Ain't Gonna Pick No More Cotton - Warner Williams an
TTITLE11=d Jay Summerour
TTITLE12=Sweet Woman - Sonny Terry and Brownie McGhee
TTITLE13=The Train That Carried My Girl From Town - Doc Watson
TTITLE14=Mountain Jack - Reverend Gary Davis
TTITLE15=Crow Jane - John Cephas and Phil Wiggins
TTITLE16=Fore Day Creep - Brownie McGhee
TTITLE17=Sittin' On Top Of The World - Roscoe Holcomb
TTITLE18=Meet Me In The Bottom - Pink Anderson
TTITLE19=Dirty Mistreater - Sonny Terry, Brownie McGhee, and J.
TTITLE19=C. Burris
TTITLE20=The Road Is Rough And Rocky - Archie Edwards
EXTD=
EXTT0=
EXTT1=
EXTT2=
EXTT3=
EXTT4=
EXTT5=
EXTT6=
EXTT7=
EXTT8=
EXTT9=
EXTT10=
EXTT11=
EXTT12=
EXTT13=
EXTT14=
EXTT15=
EXTT16=
EXTT17=
EXTT18=
EXTT19=
EXTT20=
PLAYORDER=
